<svg xmlns="http://www.w3.org/2000/svg" xmlns:xlink="http://www.w3.org/1999/xlink" x="0px" y="0px" viewBox="0 0 591.8 250.4">
	<path fill="#E73834" d="M240,221.3l331.9,29.1l19.4-221.3L259.3,0L139,101L240,221.3z M570.5,47.6l-16,182.3l-17.8-1.6l16-182.3
	L570.5,47.6z M192.2,96.1c4.8,5.7,4,14.1-1.7,18.9c-5.7,4.8-14.1,4-18.9-1.7c-4.8-5.7-4-14.1,1.7-18.9
	C179,89.7,187.5,90.4,192.2,96.1L192.2,96.1z M192.2,96.1"/>
	<g fill="#FFFFFF">
		<path d="M333.2,39.3c13.7,0,21.3,4.6,21.3,15.1c0,5.8-1.8,10.1-8.3,12.8c7.5,2.3,10.6,7.4,10.6,14.5
			c0,13.5-10.9,17.3-24.3,17.3h-31.4V39.3H333.2z M329.4,55.3h-5.6v7.1h5.6c2.7,0,3.7-1.9,3.7-3.6S332.1,55.3,329.4,55.3z M330.3,75
			h-6.6v7.7h6.6c2.9,0,3.9-1.9,3.9-3.8C334.3,76.9,333.2,75,330.3,75z"/>
		<path d="M408.5,39.3v17h-24.2v5.1h20.8v15.1h-20.8v5.1H409v17.2h-47.3V39.3H408.5z"/>
		<path d="M437.8,37.9c8.1,0,16.9,1.9,23.3,5.1V62c-6.2-3.6-14-6-20.4-5.9c-2.6,0-3.6,0.6-3.6,1.7c0,5,27.3,2,27.3,22.3
			c0,16-11.7,20.2-26,20.2c-9.3,0-17.4-2-24.2-5.7V74.4c7.7,4.9,15.7,7.2,21.6,7.2c4.5,0,5.2-0.9,5.2-2c0-4.3-27.4-2.1-27.4-22.6
			C413.8,44.1,424.5,37.9,437.8,37.9z"/>
		<path d="M519.4,39.3v19.6h-15.3v40h-22.6v-40h-15.3V39.3H519.4z"/>
		<path d="M261.3,109.3c21.4,0,30.8,12.3,30.8,29.8c0,17.5-9.4,29.8-30.8,29.8h-27.2v-59.6H261.3z M260.4,128.1h-3.7
			v22.1h3.7c4.9,0,8.3-2.5,8.3-11.1C268.8,130.5,265.4,128.1,260.4,128.1z"/>
		<path d="M344.2,109.3v17H320v5.1h20.8v15.2H320v5.1h24.7v17.2h-47.3v-59.6H344.2z"/>
		<path d="M346.6,168.9l21.4-59.6h24.3l21.4,59.6h-22.9l-2-6.8h-17.4l-2,6.8H346.6z M375.7,146.8h8.8l-2.6-9.2
			c-0.8-2.8-1.4-6-1.8-8.9c-0.3,3-1,6.1-1.8,8.9L375.7,146.8z"/>
		<path d="M439.4,109.3v40h24.2v19.6h-46.8v-59.6H439.4z"/>
		<path d="M490.9,107.9c8.1,0,16.9,1.9,23.3,5.1v19.1c-6.2-3.6-14-6-20.4-5.9c-2.6,0-3.6,0.6-3.6,1.7
			c0,5,27.3,2,27.3,22.3c0,16-11.7,20.2-26,20.2c-9.3,0-17.4-2-24.2-5.7v-20.2c7.7,4.9,15.7,7.2,21.6,7.2c4.5,0,5.2-0.9,5.2-2
			c0-4.3-27.4-2.1-27.4-22.6C466.9,114.2,477.6,107.9,490.9,107.9z"/>
	</g>
	<g fill="#FBDB00">
		<path d="M353.1,217.1c-3.1,0-5.8-1.8-5.8-5.6c0-3.8,2.7-5.6,5.8-5.6c3.1,0,5.8,1.8,5.8,5.6
			C358.9,215.3,356.2,217.1,353.1,217.1z"/>
		<path d="M385.9,184.8v10.3h-8.1v21.1h-12v-21.1h-8.1v-10.3H385.9z"/>
		<path d="M403.5,184c11.4,0,17.2,7.2,17.2,16.5s-5.8,16.5-17.2,16.5c-11.4,0-17.2-7.2-17.2-16.5S392.1,184,403.5,184z
			 M403.5,194.8c-2.9,0-4.9,1.9-4.9,5.7c0,3.8,1.9,5.7,4.9,5.7c3,0,4.9-1.9,4.9-5.7C408.5,196.8,406.5,194.8,403.5,194.8z"/>
		<path d="M437.8,184.8c11.3,0,16.3,6.5,16.3,15.8s-5,15.7-16.3,15.7h-14.4v-31.5H437.8z M437.4,194.7h-1.9v11.7h1.9
			c2.6,0,4.4-1.3,4.4-5.8S440,194.7,437.4,194.7z"/>
		<path d="M453.1,216.3l11.3-31.5h12.9l11.3,31.5h-12.1l-1-3.6h-9.2l-1,3.6H453.1z M468.4,204.6h4.6l-1.4-4.9
			c-0.4-1.5-0.8-3.1-0.9-4.7c-0.2,1.6-0.5,3.2-0.9,4.7L468.4,204.6z"/>
		<path d="M493.6,216.3v-10.8l-11.7-20.7h13.5l4.2,11.1l4.2-11.1h13.5l-11.8,20.7v10.8H493.6z"/>

		<path d="M257,72.4v8.7h-10v2.3h8.9v8.4H247V99h-10.1V72.4H257z"/>
		<path d="M259.6,99V72.4h13.2c5.9,0,11.7,2.3,11.7,9.7c0,4-1.7,6.5-4.1,7.9l6.4,9h-11l-4.7-7.2h-1.3V99H259.6z
			 M269.7,84.4h2.5c1.5,0,2.1-1,2.1-2.1c0-1.1-0.6-2.1-2.1-2.1h-2.5V84.4z"/>
		<path d="M291.7,99.6c-2.6,0-4.9-1.5-4.9-4.7s2.3-4.7,4.9-4.7c2.6,0,4.9,1.5,4.9,4.7S294.3,99.6,291.7,99.6z"/>
	</g>
</svg>
