<svg version="1.1" id="Layer_1" xmlns="http://www.w3.org/2000/svg" xmlns:xlink="http://www.w3.org/1999/xlink" x="0px" y="0px"
	 viewBox="0 0 591.8 250.4" style="enable-background:new 0 0 591.8 250.4;" xml:space="preserve">
<style type="text/css">
	.st0{fill:#E73834;}
	.st1{fill:#FFFFFF;}
	.st2{fill:#FBDB00;}
</style>
<g>
	<path class="st0" d="M240.5,221.3l331.9,29.1l19.4-221.3L259.9,0L139.5,101L240.5,221.3z M571,47.6l-16,182.3l-17.8-1.6l16-182.3
		L571,47.6z M192.8,96.1c4.8,5.7,4,14.1-1.7,18.9c-5.7,4.8-14.1,4-18.9-1.7c-4.8-5.7-4-14.1,1.7-18.9
		C179.5,89.7,188,90.4,192.8,96.1L192.8,96.1z M192.8,96.1"/>
</g>
<g>
	<path class="st1" d="M336.2,39.3c13.7,0,21.3,4.6,21.3,15.1c0,5.8-1.8,10.1-8.3,12.8c7.5,2.3,10.6,7.4,10.6,14.5
		c0,13.5-10.9,17.3-24.3,17.3h-31.4V39.3H336.2z M332.4,55.3h-5.6v7.1h5.6c2.7,0,3.7-1.9,3.7-3.6S335.1,55.3,332.4,55.3z M333.3,75
		h-6.6v7.7h6.6c2.9,0,3.9-1.9,3.9-3.8C337.2,76.9,336.2,75,333.3,75z"/>
	<path class="st1" d="M411.5,39.3v17h-24.2v5.1h20.8v15.1h-20.8v5.1H412v17.2h-47.3V39.3H411.5z"/>
	<path class="st1" d="M440.8,37.9c8.1,0,16.9,1.9,23.3,5.1V62c-6.2-3.6-14-6-20.4-5.9c-2.6,0-3.6,0.6-3.6,1.7c0,5,27.3,2,27.3,22.3
		c0,16-11.7,20.2-26,20.2c-9.3,0-17.4-2-24.2-5.7V74.4c7.7,4.9,15.7,7.2,21.6,7.2c4.5,0,5.2-0.9,5.2-2c0-4.3-27.4-2.1-27.4-22.6
		C416.7,44.1,427.5,37.9,440.8,37.9z"/>
	<path class="st1" d="M522.4,39.3v19.6H507v40h-22.6v-40h-15.3V39.3H522.4z"/>
</g>
<g>
	<path class="st1" d="M261.8,109.3c21.4,0,30.8,12.3,30.8,29.8c0,17.5-9.4,29.8-30.8,29.8h-27.2v-59.6H261.8z M261,128.1h-3.7v22.1
		h3.7c4.9,0,8.3-2.5,8.3-11.1C269.3,130.5,265.9,128.1,261,128.1z"/>
	<path class="st1" d="M344.7,109.3v17h-24.2v5.1h20.8v15.2h-20.8v5.1h24.7v17.2h-47.3v-59.6H344.7z"/>
	<path class="st1" d="M347.1,168.9l21.4-59.6h24.3l21.4,59.6h-22.9l-2-6.8H372l-2,6.8H347.1z M376.2,146.8h8.8l-2.6-9.2
		c-0.8-2.8-1.4-6-1.8-8.9c-0.3,3-1,6.1-1.8,8.9L376.2,146.8z"/>
	<path class="st1" d="M439.9,109.3v40h24.2v19.6h-46.8v-59.6H439.9z"/>
	<path class="st1" d="M491.5,107.9c8.1,0,16.9,1.9,23.3,5.1v19.1c-6.2-3.6-14-6-20.4-5.9c-2.6,0-3.6,0.6-3.6,1.7
		c0,5,27.3,2,27.3,22.3c0,16-11.7,20.2-26,20.2c-9.3,0-17.4-2-24.2-5.7v-20.2c7.7,4.9,15.7,7.2,21.6,7.2c4.5,0,5.2-0.9,5.2-2
		c0-4.3-27.4-2.1-27.4-22.6C467.4,114.2,478.1,107.9,491.5,107.9z"/>
</g>
<g>
	<path class="st2" d="M353.6,217.1c-3.1,0-5.8-1.8-5.8-5.6c0-3.8,2.7-5.6,5.8-5.6c3.1,0,5.8,1.8,5.8,5.6
		C359.4,215.3,356.7,217.1,353.6,217.1z"/>
	<path class="st2" d="M386.4,184.8v10.3h-8.1v21.1h-12v-21.1h-8.1v-10.3H386.4z"/>
	<path class="st2" d="M404.1,184c11.4,0,17.2,7.2,17.2,16.5s-5.8,16.5-17.2,16.5c-11.4,0-17.2-7.2-17.2-16.5S392.6,184,404.1,184z
		 M404.1,194.8c-2.9,0-4.9,1.9-4.9,5.7c0,3.8,1.9,5.7,4.9,5.7c3,0,4.9-1.9,4.9-5.7C409,196.8,407,194.8,404.1,194.8z"/>
	<path class="st2" d="M438.4,184.8c11.3,0,16.3,6.5,16.3,15.8s-5,15.7-16.3,15.7H424v-31.5H438.4z M437.9,194.7H436v11.7h1.9
		c2.6,0,4.4-1.3,4.4-5.8S440.5,194.7,437.9,194.7z"/>
	<path class="st2" d="M453.6,216.3l11.3-31.5h12.9l11.3,31.5h-12.1l-1-3.6h-9.2l-1,3.6H453.6z M469,204.6h4.6l-1.4-4.9
		c-0.4-1.5-0.8-3.1-0.9-4.7c-0.2,1.6-0.5,3.2-0.9,4.7L469,204.6z"/>
	<path class="st2" d="M494.2,216.3v-10.8l-11.7-20.7h13.5l4.2,11.1l4.2-11.1h13.5L506,205.6v10.8H494.2z"/>
</g>
<g>
	<g>
		<path class="st2" d="M248.5,72.4c9.6,0,13.8,5.5,13.8,13.3c0,7.8-4.2,13.3-13.8,13.3h-12.1V72.4H248.5z M248.1,80.7h-1.6v9.9h1.6
			c2.2,0,3.7-1.1,3.7-4.9S250.3,80.7,248.1,80.7z"/>
		<path class="st2" d="M285.5,72.4V80h-10.8v2.3h9.3V89h-9.3v2.3h11V99h-21.1V72.4H285.5z"/>
		<path class="st2" d="M292.4,99.6c-2.6,0-4.9-1.5-4.9-4.7s2.3-4.7,4.9-4.7c2.6,0,4.9,1.5,4.9,4.7S295,99.6,292.4,99.6z"/>
	</g>
</g>
<rect y="100.5" class="st1" width="170.1" height="8.5"/>
</svg>
