<svg version="1.1" id="logo" xmlns="http://www.w3.org/2000/svg" xmlns:xlink="http://www.w3.org/1999/xlink" x="0px" y="0px"
   viewbox="0 0 573 392">
  <g>
    <path d="M20,15.2h10.5l248.8,352.1c60.2-76.5,120.2-152.9,180.8-229.9l-123.7,0.1l-5.6-8.6c49.1,0,97.8,0,147,0
      c-66.4,84.4-132.5,168.6-198.8,252.9L20,15.2z"/>
    <polygon points="520.2,128.8 321.4,381.7 310.2,381.8 509.1,128.8 	"/>
    <path d="M562.8,129.5L364.5,381.8l-4.2,0c0,0-4,0-6.8,0c4.9-6.3,9.3-12,13.8-17.6C428,287,551.6,129.5,551.6,129.5H562.8z"/>
  </g>
</svg>
