<?xml version="1.0" encoding="utf-8"?>
<!-- Generator: Adobe Illustrator 19.2.1, SVG Export Plug-In . SVG Version: 6.00 Build 0)  -->
<svg version="1.1" id="Layer_1" xmlns="http://www.w3.org/2000/svg" xmlns:xlink="http://www.w3.org/1999/xlink" x="0px" y="0px"
	 viewBox="0 0 565.9 250.4" style="enable-background:new 0 0 565.9 250.4;" xml:space="preserve">
<style type="text/css">
	.st0{fill:#E73834;}
	.st1{fill:#FFFFFF;}
	.st2{fill:#FBDB00;}
</style>
<g>
	<path class="st0" d="M214.6,221.3l331.9,29.1l19.4-221.3L234,0L113.7,101L214.6,221.3z M545.1,47.6l-16,182.3l-17.8-1.6l16-182.3
		L545.1,47.6z M166.9,96.1c4.8,5.7,4,14.1-1.7,18.9c-5.7,4.8-14.1,4-18.9-1.7c-4.8-5.7-4-14.1,1.7-18.9
		C153.7,89.7,162.1,90.4,166.9,96.1L166.9,96.1z M166.9,96.1"/>
</g>
<g>
	<path class="st1" d="M250.9,39.3c13.7,0,21.3,4.6,21.3,15.1c0,5.8-1.8,10.1-8.3,12.8c7.5,2.3,10.6,7.4,10.6,14.5
		c0,13.5-10.9,17.3-24.3,17.3h-31.4V39.3H250.9z M247.1,55.3h-5.6v7.1h5.6c2.7,0,3.7-1.9,3.7-3.6S249.8,55.3,247.1,55.3z M248,75
		h-6.6v7.7h6.6c2.9,0,3.9-1.9,3.9-3.8C251.9,76.9,250.9,75,248,75z"/>
	<path class="st1" d="M326.1,39.3v17H302v5.1h20.8v15.1H302v5.1h24.7v17.2h-47.3V39.3H326.1z"/>
	<path class="st1" d="M355.5,37.9c8.1,0,16.9,1.9,23.3,5.1V62c-6.2-3.6-14-6-20.4-5.9c-2.6,0-3.6,0.6-3.6,1.7c0,5,27.3,2,27.3,22.3
		c0,16-11.7,20.2-26,20.2c-9.3,0-17.4-2-24.2-5.7V74.4c7.7,4.9,15.7,7.2,21.6,7.2c4.5,0,5.2-0.9,5.2-2c0-4.3-27.4-2.1-27.4-22.6
		C331.4,44.1,342.1,37.9,355.5,37.9z"/>
	<path class="st1" d="M437,39.3v19.6h-15.3v40h-22.6v-40h-15.3V39.3H437z"/>
</g>
<g>
	<path class="st1" d="M246,109.3c21.4,0,30.8,12.3,30.8,29.8c0,17.5-9.4,29.8-30.8,29.8h-27.2v-59.6H246z M245.1,128.1h-3.7v22.1
		h3.7c4.9,0,8.3-2.5,8.3-11.1C253.4,130.5,250,128.1,245.1,128.1z"/>
	<path class="st1" d="M328.9,109.3v17h-24.2v5.1h20.8v15.2h-20.8v5.1h24.7v17.2H282v-59.6H328.9z"/>
	<path class="st1" d="M331.2,168.9l21.4-59.6h24.3l21.4,59.6h-22.9l-2-6.8h-17.4l-2,6.8H331.2z M360.3,146.8h8.8l-2.6-9.2
		c-0.8-2.8-1.4-6-1.8-8.9c-0.3,3-1,6.1-1.8,8.9L360.3,146.8z"/>
	<path class="st1" d="M424,109.3v40h24.2v19.6h-46.8v-59.6H424z"/>
	<path class="st1" d="M475.6,107.9c8.1,0,16.9,1.9,23.3,5.1v19.1c-6.2-3.6-14-6-20.4-5.9c-2.6,0-3.6,0.6-3.6,1.7
		c0,5,27.3,2,27.3,22.3c0,16-11.7,20.2-26,20.2c-9.3,0-17.4-2-24.2-5.7v-20.2c7.7,4.9,15.7,7.2,21.6,7.2c4.5,0,5.2-0.9,5.2-2
		c0-4.3-27.4-2.1-27.4-22.6C451.5,114.2,462.2,107.9,475.6,107.9z"/>
</g>
<g>
	<path class="st2" d="M337.8,217.1c-3.1,0-5.8-1.8-5.8-5.6c0-3.8,2.7-5.6,5.8-5.6c3.1,0,5.8,1.8,5.8,5.6
		C343.6,215.3,340.9,217.1,337.8,217.1z"/>
	<path class="st2" d="M370.5,184.8v10.3h-8.1v21.1h-12v-21.1h-8.1v-10.3H370.5z"/>
	<path class="st2" d="M388.2,184c11.4,0,17.2,7.2,17.2,16.5s-5.8,16.5-17.2,16.5c-11.4,0-17.2-7.2-17.2-16.5S376.8,184,388.2,184z
		 M388.2,194.8c-2.9,0-4.9,1.9-4.9,5.7c0,3.8,1.9,5.7,4.9,5.7c3,0,4.9-1.9,4.9-5.7C393.1,196.8,391.2,194.8,388.2,194.8z"/>
	<path class="st2" d="M422.5,184.8c11.3,0,16.3,6.5,16.3,15.8s-4.9,15.7-16.3,15.7h-14.4v-31.5H422.5z M422,194.7h-1.9v11.7h1.9
		c2.6,0,4.4-1.3,4.4-5.8S424.7,194.7,422,194.7z"/>
	<path class="st2" d="M437.7,216.3l11.3-31.5h12.9l11.3,31.5h-12.1l-1-3.6h-9.2l-1,3.6H437.7z M453.1,204.6h4.6l-1.4-4.9
		c-0.4-1.5-0.8-3.1-0.9-4.7c-0.2,1.6-0.5,3.2-0.9,4.7L453.1,204.6z"/>
	<path class="st2" d="M478.3,216.3v-10.8l-11.7-20.7h13.5l4.2,11.1l4.2-11.1H502l-11.8,20.7v10.8H478.3z"/>
</g>
<rect x="0.7" y="97.1" class="st1" width="155.9" height="11.8"/>
</svg>
